<svg width="20" height="20" viewBox="0 0 20 20" fill="none" xmlns="http://www.w3.org/2000/svg">
<path d="M10 13.3333C6.2068 13.3333 2.83354 15.034 0.68595 17.6733C0.22373 18.2413 -0.00738002 18.5254 0.000179613 18.9092C0.00602014 19.2058 0.206567 19.5799 0.457852 19.763C0.783102 20 1.23383 20 2.13527 20H17.8647C18.7662 20 19.2169 20 19.5421 19.763C19.7934 19.5799 19.994 19.2058 19.9998 18.9092C20.0074 18.5254 19.7763 18.2413 19.3141 17.6733C17.1665 15.034 13.7932 13.3333 10 13.3333Z" fill="#6A6A6A"/>
<path d="M10 10C12.9738 10 15.3845 7.76142 15.3845 5C15.3845 2.23858 12.9738 0 10 0C7.02621 0 4.61547 2.23858 4.61547 5C4.61547 7.76142 7.02621 10 10 10Z" fill="#6A6A6A"/>
</svg>
