<svg width="24" height="25" viewBox="0 0 24 25" fill="none" xmlns="http://www.w3.org/2000/svg">
<path d="M9.01871 14.0728L15.659 18.2187M15.6493 6.78117L9.01871 10.927M21.084 5.20825C21.084 6.93414 19.7781 8.33325 18.1673 8.33325C16.5565 8.33325 15.2507 6.93414 15.2507 5.20825C15.2507 3.48236 16.5565 2.08325 18.1673 2.08325C19.7781 2.08325 21.084 3.48236 21.084 5.20825ZM9.41732 12.4999C9.41732 14.2258 8.11148 15.6249 6.50065 15.6249C4.88982 15.6249 3.58398 14.2258 3.58398 12.4999C3.58398 10.774 4.88982 9.37492 6.50065 9.37492C8.11148 9.37492 9.41732 10.774 9.41732 12.4999ZM21.084 19.7916C21.084 21.5175 19.7781 22.9166 18.1673 22.9166C16.5565 22.9166 15.2507 21.5175 15.2507 19.7916C15.2507 18.0657 16.5565 16.6666 18.1673 16.6666C19.7781 16.6666 21.084 18.0657 21.084 19.7916Z" stroke="#1E1E1E" stroke-width="2" stroke-linecap="round" stroke-linejoin="round"/>
</svg>
