<svg width="60" height="60" viewBox="0 0 60 60" fill="none" xmlns="http://www.w3.org/2000/svg">
<path d="M30 40C18.6204 40 8.50063 45.1021 2.05785 53.0199C0.67119 54.724 -0.0221401 55.5761 0.00053884 56.7276C0.0180604 57.6173 0.6197 58.7397 1.37356 59.289C2.34931 60 3.70148 60 6.40581 60H53.5942C56.2985 60 57.6507 60 58.6264 59.289C59.3803 58.7397 59.9819 57.6173 59.9995 56.7276C60.0221 55.5761 59.3288 54.724 57.9422 53.0199C51.4994 45.1021 41.3796 40 30 40Z" fill="white"/>
<path d="M30 30C38.9214 30 46.1536 23.2843 46.1536 15C46.1536 6.71573 38.9214 0 30 0C21.0786 0 13.8464 6.71573 13.8464 15C13.8464 23.2843 21.0786 30 30 30Z" fill="white"/>
</svg>
