<svg width="18" height="18" viewBox="0 0 18 18" fill="none" xmlns="http://www.w3.org/2000/svg">
<path d="M13.218 15.9999C12.6078 15.9999 11.7508 15.7792 10.4674 15.0624C8.90678 14.1874 7.69966 13.3795 6.14747 11.8317C4.65091 10.3364 3.92264 9.36824 2.90337 7.51384C1.75188 5.42006 1.94817 4.32255 2.16759 3.85348C2.42889 3.29285 2.8146 2.95753 3.31314 2.62472C3.5963 2.43923 3.89597 2.28022 4.20832 2.14971C4.23958 2.13627 4.26865 2.12346 4.29459 2.1119C4.44931 2.04221 4.68373 1.9369 4.98067 2.0494C5.17883 2.12377 5.35574 2.27596 5.63267 2.5494C6.2006 3.10941 6.9767 4.35661 7.26301 4.96912C7.45523 5.38194 7.58245 5.65444 7.58276 5.96007C7.58276 6.31789 7.40272 6.59383 7.18424 6.89164C7.14329 6.94758 7.10266 7.00102 7.06328 7.0529C6.82542 7.3654 6.77322 7.45571 6.8076 7.61696C6.8773 7.94103 7.3971 8.90573 8.25133 9.75793C9.10557 10.6101 10.0426 11.097 10.368 11.1664C10.5362 11.2023 10.6284 11.1479 10.9509 10.9017C10.9972 10.8664 11.0447 10.8298 11.0944 10.7933C11.4276 10.5454 11.6908 10.3701 12.0402 10.3701H12.0421C12.3462 10.3701 12.6066 10.502 13.0379 10.7195C13.6006 11.0033 14.8855 11.7692 15.4491 12.3376C15.7232 12.6139 15.876 12.7902 15.9507 12.988C16.0632 13.2858 15.9573 13.5192 15.8882 13.6755C15.8766 13.7014 15.8638 13.7298 15.8504 13.7614C15.7188 14.0731 15.5588 14.3721 15.3725 14.6545C15.0402 15.1514 14.7036 15.5361 14.1416 15.7977C13.853 15.9342 13.5372 16.0033 13.218 15.9999Z" fill="black"/>
</svg>
