<svg width="20" height="20" viewBox="0 0 20 20" fill="none" xmlns="http://www.w3.org/2000/svg">
<path d="M10 13C7.34476 13 4.98348 14.2755 3.48016 16.255C3.15661 16.681 2.99483 16.894 3.00013 17.1819C3.00421 17.4043 3.1446 17.6849 3.3205 17.8222C3.54817 18 3.86368 18 4.49469 18H15.5053C16.1363 18 16.4518 18 16.6795 17.8222C16.8554 17.6849 16.9958 17.4043 16.9999 17.1819C17.0052 16.894 16.8434 16.681 16.5198 16.255C15.0165 14.2755 12.6552 13 10 13Z" fill="black"/>
<path d="M10 10.5C12.0817 10.5 13.7692 8.82107 13.7692 6.75C13.7692 4.67893 12.0817 3 10 3C7.91834 3 6.23083 4.67893 6.23083 6.75C6.23083 8.82107 7.91834 10.5 10 10.5Z" fill="black"/>
</svg>
