<svg width="18" height="18" viewBox="0 0 18 18" fill="none" xmlns="http://www.w3.org/2000/svg">
<path d="M4.23333 2.5C3.27729 2.5 2.5 3.22871 2.5 4.125V13.875C2.5 14.7713 3.27729 15.5 4.23333 15.5H12.0333C12.9894 15.5 13.7667 14.7713 13.7667 13.875V4.125C13.7667 3.22871 12.9894 2.5 12.0333 2.5H4.23333ZM7.26667 9.8125H9C10.1971 9.8125 11.1667 10.7215 11.1667 11.8438C11.1667 12.0672 10.9717 12.25 10.7333 12.25H5.53333C5.295 12.25 5.1 12.0672 5.1 11.8438C5.1 10.7215 6.06958 9.8125 7.26667 9.8125ZM6.61667 7.375C6.61667 6.9979 6.77646 6.63624 7.06089 6.36958C7.34532 6.10293 7.73109 5.95312 8.13333 5.95312C8.53558 5.95312 8.92135 6.10293 9.20578 6.36958C9.49021 6.63624 9.65 6.9979 9.65 7.375C9.65 7.7521 9.49021 8.11376 9.20578 8.38042C8.92135 8.64707 8.53558 8.79688 8.13333 8.79688C7.73109 8.79688 7.34532 8.64707 7.06089 8.38042C6.77646 8.11376 6.61667 7.7521 6.61667 7.375ZM15.5 4.53125C15.5 4.30781 15.305 4.125 15.0667 4.125C14.8283 4.125 14.6333 4.30781 14.6333 4.53125V6.15625C14.6333 6.37969 14.8283 6.5625 15.0667 6.5625C15.305 6.5625 15.5 6.37969 15.5 6.15625V4.53125ZM15.5 7.78125C15.5 7.55781 15.305 7.375 15.0667 7.375C14.8283 7.375 14.6333 7.55781 14.6333 7.78125V9.40625C14.6333 9.62969 14.8283 9.8125 15.0667 9.8125C15.305 9.8125 15.5 9.62969 15.5 9.40625V7.78125ZM15.0667 10.625C14.8283 10.625 14.6333 10.8078 14.6333 11.0312V12.6562C14.6333 12.8797 14.8283 13.0625 15.0667 13.0625C15.305 13.0625 15.5 12.8797 15.5 12.6562V11.0312C15.5 10.8078 15.305 10.625 15.0667 10.625Z" fill="black"/>
</svg>
