<svg width="24" height="25" viewBox="0 0 24 25" fill="none" xmlns="http://www.w3.org/2000/svg">
<path d="M4.861 15.6249H3.88878C3.37308 15.6249 2.8785 15.4054 2.51385 15.0147C2.1492 14.624 1.94434 14.0941 1.94434 13.5416V4.16659C1.94434 3.61405 2.1492 3.08415 2.51385 2.69345C2.8785 2.30275 3.37308 2.08325 3.88878 2.08325H12.6388C13.1545 2.08325 13.6491 2.30275 14.0137 2.69345C14.3784 3.08415 14.5832 3.61405 14.5832 4.16659V5.20825M10.6943 9.37492H19.4443C20.5182 9.37492 21.3888 10.3077 21.3888 11.4583V20.8333C21.3888 21.9838 20.5182 22.9166 19.4443 22.9166H10.6943C9.62045 22.9166 8.74989 21.9838 8.74989 20.8333V11.4583C8.74989 10.3077 9.62045 9.37492 10.6943 9.37492Z" stroke="#1E1E1E" stroke-width="2" stroke-linecap="round" stroke-linejoin="round"/>
</svg>
