<svg width="52" height="52" viewBox="0 0 52 52" fill="none" xmlns="http://www.w3.org/2000/svg">
<path d="M28.8011 22.2035C28.5533 22.1985 28.307 22.2447 28.0779 22.3393C27.8487 22.4339 27.6416 22.5748 27.4696 22.7533C27.2975 22.9317 27.1642 23.1439 27.078 23.3763C26.9918 23.6087 26.9546 23.8565 26.9687 24.104C26.9687 24.6004 27.1659 25.0764 27.5169 25.4274C27.8679 25.7784 28.344 25.9756 28.8404 25.9756C29.3368 25.9756 29.8128 25.7784 30.1638 25.4274C30.5148 25.0764 30.712 24.6004 30.712 24.104C30.7249 23.8501 30.6842 23.5964 30.5926 23.3593C30.501 23.1221 30.3605 22.907 30.1803 22.7277C30 22.5485 29.7841 22.4092 29.5465 22.3189C29.3089 22.2286 29.0549 22.1893 28.8011 22.2035Z" fill="white" fill-opacity="0.5"/>
<path d="M47.2981 8.90052C46.422 8.02177 45.3807 7.32511 44.2342 6.85068C43.0877 6.37625 41.8586 6.13344 40.6177 6.13625H11.4202C10.1796 6.13522 8.951 6.37881 7.80466 6.85308C6.65833 7.32735 5.61676 8.02299 4.73954 8.9002C3.86232 9.77742 3.16668 10.819 2.69241 11.9653C2.21814 13.1117 1.97456 14.3403 1.97559 15.5808V29.6325C1.97456 30.8731 2.21814 32.1017 2.69241 33.248C3.16668 34.3944 3.86232 35.4359 4.73954 36.3132C5.61676 37.1904 6.65833 37.886 7.80466 38.3603C8.951 38.8346 10.1796 39.0781 11.4202 39.0771H22.1893L25.2991 45.4014C25.3496 45.5523 25.4463 45.6836 25.5755 45.7766C25.7047 45.8695 25.8598 45.9196 26.019 45.9196C26.1781 45.9196 26.3333 45.8695 26.4624 45.7766C26.5916 45.6836 26.6883 45.5523 26.7388 45.4014L29.8486 39.0666H40.6177C41.8574 39.0677 43.0852 38.8244 44.2308 38.3508C45.3765 37.8772 46.4176 37.1825 47.2947 36.3064C48.1718 35.4303 48.8676 34.3899 49.3425 33.2448C49.8174 32.0997 50.062 30.8722 50.0623 29.6325V15.5808C50.0651 14.34 49.8223 13.1109 49.3479 11.9644C48.8735 10.8178 48.1768 9.77655 47.2981 8.90052ZM12.5719 28.6483C12.0909 28.6689 11.6123 28.5696 11.1792 28.3594C10.746 28.1493 10.3719 27.8347 10.0904 27.4442H10.038V28.3656H7.101V15.984H10.0904V20.6958C10.4095 20.3423 10.801 20.0616 11.2382 19.8728C11.6754 19.684 12.1482 19.5915 12.6243 19.6016C13.1916 19.6197 13.7495 19.7517 14.2648 19.9895C14.7801 20.2274 15.2424 20.5663 15.6243 20.9863C16.0061 21.4062 16.2997 21.8986 16.4877 22.4341C16.6756 22.9697 16.754 23.5375 16.7184 24.104C16.7515 24.6762 16.6698 25.2493 16.4782 25.7895C16.2866 26.3298 15.9888 26.8262 15.6024 27.2496C15.2161 27.673 14.7489 28.0149 14.2285 28.2551C13.7081 28.4953 13.1448 28.629 12.5719 28.6483ZM21.9589 28.3603H19.0795V21.2245C19.0795 19.9 18.8491 18.7482 17.6974 18.5755V15.696C20.2313 15.696 21.9589 17.5284 21.9589 20.6487V28.3603ZM28.8696 28.5907C28.2417 28.6473 27.6089 28.5725 27.0116 28.371C26.4142 28.1695 25.8654 27.8458 25.4 27.4205C24.9347 26.9952 24.563 26.4776 24.3087 25.9008C24.0544 25.3239 23.9231 24.7004 23.9231 24.07C23.9231 23.4395 24.0544 22.816 24.3087 22.2392C24.563 21.6623 24.9347 21.1447 25.4 20.7194C25.8654 20.2941 26.4142 19.9704 27.0116 19.7689C27.6089 19.5675 28.2417 19.4926 28.8696 19.5492C29.4978 19.5039 30.1286 19.5874 30.7234 19.7948C31.3181 20.0021 31.8642 20.3288 32.328 20.7549C32.7918 21.181 33.1637 21.6974 33.4206 22.2724C33.6776 22.8475 33.8143 23.469 33.8223 24.0988C33.8187 24.7276 33.6845 25.3489 33.4283 25.9233C33.1721 26.4976 32.7994 27.0125 32.3338 27.4352C31.8682 27.858 31.3199 28.1795 30.7235 28.3793C30.1272 28.5791 29.4959 28.6528 28.8696 28.5959V28.5907ZM44.7642 27.6117C44.7642 31.1822 42.9789 32.9675 39.8691 32.9675H39.2932V30.266H39.8691C41.424 30.266 41.8847 29.287 41.8847 27.8473V27.4442C41.561 27.8112 41.1619 28.1041 40.7146 28.3029C40.2674 28.5016 39.7826 28.6016 39.2932 28.5959C38.7407 28.5905 38.1951 28.4729 37.6895 28.2502C37.1838 28.0275 36.7287 27.7044 36.3517 27.3005C35.9747 26.8966 35.6837 26.4203 35.4964 25.9005C35.3091 25.3807 35.2293 24.8283 35.262 24.2768C35.2237 23.6955 35.3032 23.1126 35.4958 22.5629C35.6884 22.0132 35.99 21.508 36.3827 21.0778C36.7753 20.6475 37.2508 20.301 37.7806 20.059C38.3104 19.817 38.8837 19.6846 39.466 19.6696C39.9346 19.6334 40.4046 19.7207 40.829 19.9228C41.2534 20.1249 41.6174 20.4347 41.8847 20.8214H41.9423V19.9L44.7642 19.9576V27.6117Z" fill="white" fill-opacity="0.5"/>
<path d="M40.1566 22.1459C39.9036 22.1331 39.6508 22.1735 39.4145 22.2645C39.1781 22.3555 38.9635 22.495 38.7844 22.6741C38.6053 22.8532 38.4658 23.0678 38.3748 23.3042C38.2838 23.5405 38.2434 23.7934 38.2561 24.0463C38.2387 24.3004 38.2759 24.5552 38.3653 24.7937C38.4546 25.0321 38.594 25.2487 38.7741 25.4288C38.9541 25.6089 39.1707 25.7483 39.4092 25.8376C39.6477 25.9269 39.9025 25.9642 40.1566 25.9467C40.4069 25.9615 40.6575 25.9218 40.8911 25.8306C41.1248 25.7393 41.3359 25.5986 41.5099 25.418C41.684 25.2375 41.817 25.0214 41.8997 24.7846C41.9823 24.5478 42.0128 24.296 41.9889 24.0463C42.008 23.7977 41.9742 23.5478 41.8898 23.3132C41.8054 23.0786 41.6722 22.8645 41.4992 22.685C41.3261 22.5054 41.117 22.3646 40.8856 22.2717C40.6542 22.1788 40.4057 22.1359 40.1566 22.1459Z" fill="white" fill-opacity="0.5"/>
<path d="M11.8809 26.0045C12.9305 26.0045 13.7813 25.1536 13.7813 24.104C13.7813 23.0545 12.9305 22.2036 11.8809 22.2036C10.8313 22.2036 9.98047 23.0545 9.98047 24.104C9.98047 25.1536 10.8313 26.0045 11.8809 26.0045Z" fill="white" fill-opacity="0.5"/>
</svg>
