<svg width="15" height="16" viewBox="0 0 15 16" fill="none" xmlns="http://www.w3.org/2000/svg">
<path d="M0.833333 16C0.597222 16 0.399445 15.9224 0.24 15.7673C0.0805556 15.6121 0.000555555 15.4203 0 15.1919V11.9596C0 11.5152 0.163333 11.1348 0.49 10.8186C0.816667 10.5024 1.20889 10.344 1.66667 10.3434H13.3333C13.7917 10.3434 14.1842 10.5018 14.5108 10.8186C14.8375 11.1354 15.0006 11.5157 15 11.9596V15.1919C15 15.4209 14.92 15.6129 14.76 15.7681C14.6 15.9232 14.4022 16.0005 14.1667 16H0.833333ZM1.66667 8.72727V6.30303C1.66667 5.85859 1.83 5.47825 2.15667 5.16202C2.48333 4.84579 2.87556 4.68741 3.33333 4.68687H6.66667V3.51515C6.41667 3.35354 6.21528 3.15825 6.0625 2.92929C5.90972 2.70034 5.83333 2.42424 5.83333 2.10101C5.83333 1.89899 5.875 1.7002 5.95833 1.50465C6.04167 1.30909 6.16667 1.13077 6.33333 0.969697L7.20833 0.121212C7.23611 0.094276 7.33333 0.053872 7.5 0C7.52778 0 7.625 0.0404039 7.79167 0.121212L8.66667 0.969697C8.83333 1.13131 8.95833 1.30963 9.04167 1.50465C9.125 1.69966 9.16667 1.89845 9.16667 2.10101C9.16667 2.42424 9.09028 2.70034 8.9375 2.92929C8.78472 3.15825 8.58333 3.35354 8.33333 3.51515V4.68687H11.6667C12.125 4.68687 12.5175 4.84498 12.8442 5.16121C13.1708 5.47744 13.3339 5.85805 13.3333 6.30303V8.72727H1.66667Z" fill="black"/>
</svg>
